<?xml version="1.0" standalone="no"?>
<!DOCTYPE svg PUBLIC "-//W3C//DTD SVG 20010904//EN"
 "http://www.w3.org/TR/2001/REC-SVG-20010904/DTD/svg10.dtd">
<svg version="1.0" xmlns="http://www.w3.org/2000/svg"
 width="2048.000000pt" height="2048.000000pt" viewBox="0 0 2048.000000 2048.000000"
 preserveAspectRatio="xMidYMid meet">
<metadata>
Created by potrace 1.14, written by Peter Selinger 2001-2017
</metadata>
<g transform="translate(0.000000,2048.000000) scale(0.100000,-0.100000)"
fill="#000000" stroke="none">
<path d="M1780 20469 c-346 -39 -701 -179 -980 -388 -92 -69 -273 -242 -350
-336 -238 -291 -398 -675 -439 -1057 -15 -137 -15 -16759 0 -16896 39 -358
175 -707 388 -992 69 -92 242 -273 336 -350 291 -238 675 -398 1057 -439 137
-15 16759 -15 16896 0 358 39 707 175 992 388 92 69 273 242 350 336 238 291
398 675 439 1057 15 137 15 16759 0 16896 -39 358 -175 707 -388 992 -69 92
-242 273 -336 350 -291 238 -675 398 -1057 439 -119 13 -16793 13 -16908 0z
m16164 -4514 l716 -805 -2165 0 -2165 0 0 -617 c0 -340 7 -2665 15 -5168 9
-2502 15 -4678 13 -4835 l-3 -286 -760 158 c-418 86 -982 203 -1252 259 l-493
102 0 5194 0 5193 -1692 0 -1693 0 -690 776 c-379 427 -700 789 -713 805 l-23
29 5095 0 5095 0 715 -805z m-12491 -2473 l87 -87 -45 -1265 -45 -1265 0
-2235 c0 -1563 3 -2262 11 -2325 33 -272 143 -504 299 -634 174 -145 394 -237
647 -271 120 -17 509 -8 653 15 142 22 354 75 475 120 206 76 468 213 681 357
l102 68 6 383 c18 1046 67 5377 63 5547 -8 317 -50 455 -176 581 -83 83 -185
134 -366 183 -71 20 -150 42 -175 50 l-45 13 0 89 0 88 1550 338 c853 185
1559 337 1570 337 13 1 53 -32 108 -87 l87 -87 -25 -1180 c-25 -1145 -25
-1259 -22 -3860 l3 -2680 21 -90 c28 -119 66 -219 107 -280 95 -144 290 -271
524 -341 l92 -27 0 -89 0 -88 -52 0 c-29 -1 -736 -40 -1570 -88 l-1518 -87 -5
30 c-3 16 -39 253 -81 525 -41 272 -77 496 -79 499 -3 2 -23 -10 -45 -27 -440
-354 -1033 -714 -1442 -876 -511 -202 -1268 -290 -1858 -216 -312 39 -684 149
-930 276 -322 165 -610 436 -813 764 -151 245 -260 592 -311 990 -37 287 -38
385 -11 2610 33 2822 33 2842 12 2960 -31 181 -80 286 -177 381 -76 75 -200
144 -323 179 -40 12 -120 37 -180 56 l-107 36 0 88 0 88 393 76 c215 43 927
182 1582 311 655 128 1201 234 1215 234 19 1 47 -21 113 -87z"/>
</g>
</svg>
